<svg width="226" height="62" viewBox="0 0 226 62" fill="none" xmlns="http://www.w3.org/2000/svg">
<path d="M0.540109 39.72C0.540109 35.3627 1.35078 31.5373 2.97211 28.244C4.64411 24.9507 6.89878 22.4173 9.73611 20.644C12.5734 18.8707 15.7401 17.984 19.2361 17.984C22.0228 17.984 24.5561 18.5667 26.8361 19.732C29.1668 20.8973 30.9908 22.468 32.3081 24.444V4.76H45.3041V61H32.3081V54.92C31.0921 56.9467 29.3441 58.568 27.0641 59.784C24.8348 61 22.2254 61.608 19.2361 61.608C15.7401 61.608 12.5734 60.7213 9.73611 58.948C6.89878 57.124 4.64411 54.5653 2.97211 51.272C1.35078 47.928 0.540109 44.0773 0.540109 39.72ZM32.3081 39.796C32.3081 36.5533 31.3961 33.9947 29.5721 32.12C27.7988 30.2453 25.6201 29.308 23.0361 29.308C20.4521 29.308 18.2481 30.2453 16.4241 32.12C14.6508 33.944 13.7641 36.4773 13.7641 39.72C13.7641 42.9627 14.6508 45.5467 16.4241 47.472C18.2481 49.3467 20.4521 50.284 23.0361 50.284C25.6201 50.284 27.7988 49.3467 29.5721 47.472C31.3961 45.5973 32.3081 43.0387 32.3081 39.796ZM61.2421 14.184C58.9621 14.184 57.0875 13.5253 55.6181 12.208C54.1995 10.84 53.4901 9.168 53.4901 7.192C53.4901 5.16533 54.1995 3.49333 55.6181 2.176C57.0875 0.807996 58.9621 0.123996 61.2421 0.123996C63.4715 0.123996 65.2955 0.807996 66.7141 2.176C68.1835 3.49333 68.9181 5.16533 68.9181 7.192C68.9181 9.168 68.1835 10.84 66.7141 12.208C65.2955 13.5253 63.4715 14.184 61.2421 14.184ZM67.7021 18.592V61H54.7061V18.592H67.7021ZM91.8482 61.8C87.3682 61.8 83.8482 61.3733 81.2882 60.52C78.7815 59.6667 76.9949 58.52 75.9282 57.08C74.9149 55.5867 74.4082 53.9867 74.4082 52.28C74.4082 49.9333 75.2349 48.3067 76.8882 47.4C78.5415 46.44 80.5149 45.96 82.8082 45.96C82.8082 49.64 83.6615 52.2533 85.3682 53.8C87.1282 55.3467 89.3682 56.12 92.0882 56.12C94.6482 56.12 96.4349 55.6667 97.4482 54.76C98.5149 53.8533 99.0482 52.8133 99.0482 51.64C99.0482 50.0933 98.2749 48.8667 96.7282 47.96C95.1815 47.0533 92.7549 46.1467 89.4482 45.24C84.5949 43.8533 80.9415 42.12 78.4882 40.04C76.0882 37.9067 74.8882 34.8133 74.8882 30.76C74.8882 26.0133 76.5949 22.5467 80.0082 20.36C83.4749 18.12 88.0349 17 93.6882 17C97.3682 17 100.302 17.4 102.488 18.2C104.728 18.9467 106.328 19.9067 107.288 21.08C108.302 22.2533 108.808 23.48 108.808 24.76C108.808 26.68 108.115 28.12 106.728 29.08C105.342 30.04 103.128 30.52 100.088 30.52C100.088 27.9067 99.3415 25.9333 97.8482 24.6C96.3549 23.2133 94.5149 22.52 92.3282 22.52C90.6749 22.52 89.3149 22.84 88.2482 23.48C87.1815 24.12 86.6482 25.1067 86.6482 26.44C86.6482 27.9333 87.2882 29.1333 88.5682 30.04C89.9015 30.8933 92.4349 31.88 96.1682 33C99.0482 33.8533 101.582 34.84 103.768 35.96C105.955 37.08 107.635 38.52 108.808 40.28C110.035 41.9867 110.648 44.2533 110.648 47.08C110.648 51.4533 109.075 55 105.928 57.72C102.782 60.44 98.0882 61.8 91.8482 61.8ZM136.884 61.8C132.671 61.8 128.991 61.1333 125.844 59.8C122.698 58.4667 120.244 56.2 118.484 53C116.724 49.7467 115.844 45.2933 115.844 39.64C115.844 33.8267 116.778 29.2933 118.644 26.04C120.511 22.7333 123.018 20.3867 126.164 19C129.311 17.6133 132.831 16.92 136.724 16.92C141.098 16.92 144.538 17.3467 147.044 18.2C149.551 19.0533 151.338 20.1467 152.404 21.48C153.471 22.76 154.004 24.0933 154.004 25.48C154.004 26.5467 153.711 27.72 153.124 29C152.538 30.28 151.338 31.3733 149.524 32.28C147.711 33.1333 144.964 33.56 141.284 33.56C141.284 31.5867 141.151 29.7733 140.884 28.12C140.671 26.4133 140.271 25.0533 139.684 24.04C139.098 22.9733 138.298 22.44 137.284 22.44C136.111 22.44 135.098 22.9467 134.244 23.96C133.391 24.9733 132.724 26.7333 132.244 29.24C131.764 31.6933 131.524 35.1333 131.524 39.56C131.524 44.7333 132.111 48.6533 133.284 51.32C134.511 53.9333 136.458 55.24 139.124 55.24C142.111 55.24 144.671 54.5467 146.804 53.16C148.991 51.7733 150.538 50.0933 151.444 48.12C152.298 48.5467 152.884 49.16 153.204 49.96C153.578 50.7067 153.764 51.4533 153.764 52.2C153.764 53.5867 153.178 55.0267 152.004 56.52C150.884 58.0133 149.098 59.2667 146.644 60.28C144.191 61.2933 140.938 61.8 136.884 61.8ZM168.031 14.184C165.751 14.184 163.877 13.5253 162.407 12.208C160.989 10.84 160.279 9.168 160.279 7.192C160.279 5.16533 160.989 3.49333 162.407 2.176C163.877 0.807996 165.751 0.123996 168.031 0.123996C170.261 0.123996 172.085 0.807996 173.503 2.176C174.973 3.49333 175.707 5.16533 175.707 7.192C175.707 9.168 174.973 10.84 173.503 12.208C172.085 13.5253 170.261 14.184 168.031 14.184ZM174.491 18.592V61H161.495V18.592H174.491ZM203.213 61.608C199.059 61.608 195.309 60.7213 191.965 58.948C188.672 57.1747 186.063 54.6413 184.137 51.348C182.263 48.0547 181.325 44.204 181.325 39.796C181.325 35.4387 182.288 31.6133 184.213 28.32C186.139 24.976 188.773 22.4173 192.117 20.644C195.461 18.8707 199.211 17.984 203.365 17.984C207.52 17.984 211.269 18.8707 214.613 20.644C217.957 22.4173 220.592 24.976 222.517 28.32C224.443 31.6133 225.405 35.4387 225.405 39.796C225.405 44.1533 224.417 48.004 222.441 51.348C220.516 54.6413 217.856 57.1747 214.461 58.948C211.117 60.7213 207.368 61.608 203.213 61.608ZM203.213 50.36C205.696 50.36 207.799 49.448 209.521 47.624C211.295 45.8 212.181 43.1907 212.181 39.796C212.181 36.4013 211.32 33.792 209.597 31.968C207.925 30.144 205.848 29.232 203.365 29.232C200.832 29.232 198.729 30.144 197.057 31.968C195.385 33.7413 194.549 36.3507 194.549 39.796C194.549 43.1907 195.36 45.8 196.981 47.624C198.653 49.448 200.731 50.36 203.213 50.36Z" fill="#1B69DE"/>
</svg>
